<svg id="chip" xmlns="http://www.w3.org/2000/svg" width="822.366" height="822.366" viewBox="0 0 822.366 822.366">
  <path id="Trazado_1" data-name="Trazado 1" d="M821.9,391.507c-.048-1.028-.1-2.072-.16-3.1-.016-.61-.064-1.221-.1-1.847q-.361-6.144-.9-12.287-.626-7.035-1.478-14.022c-.209-1.67-.418-3.357-.658-5.027-.225-1.67-.45-3.341-.707-5-.514-3.485-1.06-6.971-1.67-10.424-.257-1.51-.53-3.02-.819-4.513-.305-1.654-.61-3.309-.948-4.947-.321-1.654-.659-3.293-1.012-4.931q-.964-4.6-2.04-9.155l-1.253-5.2q-4.337-17.395-10.167-34.292c-.546-1.606-1.108-3.2-1.686-4.786-1.622-4.562-3.341-9.107-5.156-13.6q-.916-2.313-1.879-4.626c-.546-1.333-1.108-2.65-1.67-3.983-.626-1.478-1.269-2.955-1.927-4.417-.578-1.317-1.157-2.618-1.751-3.919-.466-1.044-.948-2.072-1.429-3.116-.161-.385-.353-.755-.53-1.14-.514-1.092-1.028-2.2-1.558-3.293-1.188-2.522-2.425-5.011-3.678-7.485-.723-1.462-1.478-2.907-2.233-4.369q-2.578-4.987-5.333-9.91c-.466-.867-.932-1.719-1.429-2.57-.385-.707-.787-1.4-1.189-2.088h-.016c-.562-1-1.108-1.992-1.686-2.971-.883-1.494-1.751-2.971-2.634-4.433q-4.65-7.758-9.669-15.323c-1.719-2.586-3.437-5.14-5.22-7.694-1.173-1.7-2.361-3.373-3.566-5.043-1-1.4-2.008-2.795-3.036-4.176-.434-.61-.883-1.2-1.333-1.8q-2.482-3.349-5.044-6.617-3.108-4-6.344-7.951c-.546-.659-1.092-1.333-1.654-2.008q-7.469-9.035-15.484-17.668c-.755-.8-1.51-1.622-2.281-2.441l-.145-.145c-1.076-1.14-2.152-2.281-3.26-3.405q-2.578-2.7-5.236-5.349c-1.269-1.269-2.538-2.522-3.823-3.758-.755-.755-1.526-1.494-2.3-2.233-1.156-1.124-2.329-2.233-3.518-3.341-1.413-1.333-2.843-2.65-4.272-3.951-1.574-1.446-3.164-2.859-4.754-4.272-1.7-1.51-3.405-3-5.14-4.465-1.108-.98-2.249-1.927-3.389-2.875-1.333-1.124-2.682-2.233-4.031-3.341s-2.7-2.2-4.064-3.277c-1.108-.883-2.233-1.767-3.357-2.65-1.189-.916-2.377-1.847-3.582-2.747-.771-.594-1.542-1.173-2.313-1.751-.932-.707-1.863-1.413-2.811-2.1-.466-.337-.932-.675-1.4-1.028-.932-.659-1.847-1.333-2.795-2.008-1.526-1.108-3.052-2.184-4.61-3.261-2.827-1.992-5.686-3.919-8.577-5.83-1.654-1.092-3.309-2.168-4.979-3.228-1.51-.964-3.02-1.927-4.529-2.859-.385-.257-.8-.514-1.2-.755-1.237-.771-2.49-1.51-3.726-2.265-.5-.305-1-.594-1.494-.9-1.526-.916-3.052-1.815-4.594-2.7-1.7-1-3.405-1.96-5.14-2.923-.787-.45-1.574-.883-2.377-1.317q-6.746-3.734-13.653-7.18c-1.092-.562-2.184-1.108-3.293-1.638-1.092-.546-2.184-1.076-3.293-1.606s-2.2-1.06-3.309-1.574q-1.662-.8-3.325-1.542-9.059-4.144-18.294-7.838c-1.542-.626-3.1-1.237-4.658-1.831s-3.116-1.189-4.674-1.767c-1.189-.45-2.377-.883-3.582-1.317-2.12-.771-4.24-1.51-6.377-2.233-1.4-.482-2.795-.948-4.192-1.413Q527,16.174,513.159,12.673c-1.221-.305-2.457-.61-3.694-.916-1.4-.337-2.779-.675-4.192-1-1.173-.289-2.345-.546-3.534-.819-1.59-.353-3.18-.691-4.786-1.028-1.108-.241-2.217-.466-3.341-.691-.851-.177-1.686-.337-2.538-.5q-13.01-2.578-26.229-4.272c-1.189-.161-2.393-.305-3.6-.45q-5.734-.7-11.484-1.221c-.032-.016-.048-.016-.064,0-1.333-.145-2.682-.257-4.032-.353q-5.18-.458-10.392-.723c-.819-.064-1.654-.112-2.474-.145-.819-.048-1.638-.08-2.474-.112-.305-.016-.594-.032-.9-.032-1.9-.1-3.791-.161-5.686-.225-.257-.016-.53-.016-.8-.016-1.927-.064-3.855-.112-5.8-.128C415.166.016,413.175,0,411.183,0Q399.088,0,387.09.707a407.749,407.749,0,0,0-162.08,43.64c-1.413.723-2.811,1.446-4.208,2.184-4.208,2.184-8.4,4.465-12.528,6.826q-12.673,7.2-24.848,15.323Q177.5,72.656,171.7,76.824a417.9,417.9,0,0,0-96.467,97.11q-4.409,6.192-8.561,12.528A407.634,407.634,0,0,0,.61,388.648q-.6,11.227-.61,22.535,0,12.89.787,25.651.385,6.553,1.012,13.074A407.872,407.872,0,0,0,37.183,582.579q3.325,7.228,6.923,14.311a409.013,409.013,0,0,0,24.285,41.616A417.455,417.455,0,0,0,186.028,755.388,401.635,401.635,0,0,0,227.8,779.433q6.071,3.036,12.239,5.863a407.792,407.792,0,0,0,133.329,35.352q7.348.7,14.745,1.076,11.468.65,23.065.642c2.554,0,5.092-.016,7.629-.08,1.333-.016,2.666-.048,3.983-.1a1.543,1.543,0,0,0,.385,0c.5-.016,1-.016,1.494-.048a1.377,1.377,0,0,0,.257-.016q2.554-.072,5.108-.193c1.847-.08,3.694-.177,5.525-.289.241,0,.482-.016.739-.032,1.863-.112,3.726-.225,5.573-.369q5.084-.386,10.151-.867c1.767-.177,3.55-.353,5.316-.562,1.751-.193,3.5-.4,5.236-.61,1.526-.177,3.036-.386,4.562-.594,1.044-.129,2.072-.273,3.116-.434.723-.1,1.446-.209,2.168-.321,1.574-.225,3.148-.466,4.706-.723,1.189-.177,2.361-.369,3.534-.578.883-.145,1.783-.305,2.666-.466.161-.016.321-.048.482-.08.916-.16,1.831-.321,2.731-.5q.506-.072,1.012-.193c.9-.161,1.783-.321,2.666-.514a2.463,2.463,0,0,0,.578-.112c.707-.129,1.414-.257,2.1-.4,1.365-.273,2.7-.546,4.048-.835q6.385-1.325,12.689-2.891c1.445-.337,2.875-.707,4.3-1.076.851-.209,1.7-.434,2.554-.659,1.124-.289,2.233-.594,3.357-.9.032,0,.048-.016.08-.016,1.349-.37,2.714-.739,4.064-1.14,1.189-.337,2.393-.674,3.582-1.028,2.281-.675,4.578-1.365,6.842-2.072,1.51-.466,3-.948,4.5-1.445q2.457-.8,4.915-1.638c.819-.273,1.638-.546,2.457-.835q1.229-.41,2.457-.867c1.622-.578,3.26-1.156,4.883-1.767,1.622-.594,3.228-1.189,4.851-1.815,1.606-.627,3.228-1.253,4.835-1.9s3.212-1.285,4.8-1.943c1.606-.659,3.2-1.333,4.786-2.008.1-.032.209-.08.321-.128,1.927-.835,3.855-1.67,5.782-2.538a.983.983,0,0,0,.193-.08c1.911-.867,3.807-1.735,5.7-2.618q5.806-2.722,11.516-5.605,2.674-1.349,5.349-2.747c1.381-.723,2.763-1.462,4.128-2.2,4.048-2.152,8.031-4.4,11.982-6.7,1.638-.964,3.261-1.927,4.883-2.907,3.71-2.216,7.372-4.513,11-6.858,1.446-.932,2.875-1.879,4.3-2.827q5.686-3.759,11.259-7.758c2.329-1.654,4.626-3.341,6.923-5.043s4.561-3.421,6.81-5.188l2.7-2.12c1.349-1.06,2.7-2.136,4.032-3.229,1.124-.9,2.233-1.815,3.325-2.731,1.3-1.076,2.586-2.152,3.871-3.245q12.866-10.914,24.944-23,2.819-2.819,5.574-5.686c1.108-1.14,2.2-2.3,3.277-3.453,2.12-2.233,4.176-4.481,6.232-6.746,1.944-2.168,3.871-4.337,5.766-6.537l.578-.675c1.14-1.317,2.265-2.65,3.373-3.983q2.554-3.036,5.043-6.12l2.072-2.6c.98-1.237,1.943-2.457,2.907-3.71.964-1.237,1.927-2.49,2.875-3.758q2.385-3.132,4.674-6.3c.787-1.092,1.574-2.168,2.345-3.261a1.556,1.556,0,0,0,.177-.241c1.687-2.361,3.357-4.77,5-7.18,1.076-1.558,2.12-3.132,3.148-4.706a2.328,2.328,0,0,0,.145-.209,1.913,1.913,0,0,0,.145-.241c.659-.98,1.3-1.943,1.927-2.939.225-.353.466-.707.691-1.076q1.9-2.987,3.79-6.023c1.044-1.7,2.072-3.405,3.1-5.124.4-.675.8-1.365,1.2-2.056.61-1.028,1.221-2.056,1.815-3.084q4.553-7.854,8.706-15.885c.915-1.767,1.815-3.534,2.7-5.316,1.381-2.747,2.731-5.493,4.032-8.272,1.06-2.265,2.12-4.529,3.148-6.81.562-1.237,1.092-2.457,1.638-3.694.659-1.478,1.285-2.971,1.911-4.449,2.827-6.6,5.445-13.3,7.886-20.045.434-1.156.851-2.329,1.253-3.5,1.574-4.417,3.052-8.882,4.449-13.363.482-1.494.932-2.987,1.381-4.481.433-1.413.851-2.827,1.269-4.24.562-1.927,1.108-3.871,1.638-5.814.08-.289.161-.578.225-.867.434-1.574.851-3.148,1.253-4.738.112-.4.225-.8.305-1.2.337-1.285.675-2.586.98-3.887.209-.851.418-1.719.627-2.57,1.831-7.71,3.453-15.5,4.818-23.338.209-1.189.434-2.393.626-3.6.177-1.012.337-2.008.5-3.02.273-1.654.53-3.325.771-5,.257-1.654.482-3.325.707-5,.337-2.441.642-4.867.915-7.308.161-1.333.305-2.682.45-4.032.193-1.735.37-3.485.53-5.236.1-.883.177-1.767.241-2.634.08-.867.145-1.751.225-2.634.128-1.558.241-3.116.353-4.674.064-.675.113-1.365.145-2.04.08-1.285.161-2.554.225-3.839q.168-2.939.289-5.879.265-5.879.337-11.773c.032-1.976.048-3.935.048-5.911v-.434Q822.366,401.088,821.9,391.507Z" transform="translate(0 0)" fill="#f1f1f1"/>
  <path id="Trazado_3" data-name="Trazado 3" d="M821.9,391.507c-.048-1.028-.1-2.072-.16-3.1-.016-.61-.064-1.221-.1-1.847q-.361-6.144-.9-12.287-.626-7.035-1.478-14.022c-.209-1.67-.418-3.357-.658-5.027-.225-1.67-.45-3.341-.707-5-.514-3.485-1.06-6.971-1.67-10.424-.257-1.51-.53-3.02-.819-4.513-.305-1.654-.61-3.309-.948-4.947-.321-1.654-.659-3.293-1.012-4.931q-.964-4.6-2.04-9.155l-1.253-5.2q-4.337-17.395-10.167-34.292c-.546-1.606-1.108-3.2-1.686-4.786-1.622-4.562-3.341-9.107-5.156-13.6q-.916-2.313-1.879-4.626c-.546-1.333-1.108-2.65-1.67-3.983-.626-1.478-1.269-2.955-1.927-4.417-.578-1.317-1.157-2.618-1.751-3.919-.466-1.044-.948-2.072-1.429-3.116-.161-.385-.353-.755-.53-1.14-.514-1.092-1.028-2.2-1.558-3.293-1.188-2.522-2.425-5.011-3.678-7.485-.723-1.462-1.478-2.907-2.233-4.369q-2.578-4.987-5.333-9.91c-.466-.867-.932-1.719-1.429-2.57q-1.422-2.554-2.891-5.059c-.883-1.494-1.751-2.971-2.634-4.433q-4.65-7.758-9.669-15.323L648.191,246.244a290.859,290.859,0,0,0-72.375-72.278L637.2,67.54c-1.654-1.092-3.309-2.168-4.979-3.228-1.51-.964-3.02-1.927-4.529-2.859-.385-.257-.8-.514-1.2-.755-1.735-1.076-3.469-2.12-5.22-3.164-1.526-.916-3.052-1.815-4.594-2.7-1.7-1-3.405-1.96-5.14-2.923-.787-.45-1.574-.883-2.377-1.317q-6.746-3.734-13.653-7.18c-1.092-.562-2.184-1.108-3.293-1.638-1.092-.546-2.184-1.076-3.293-1.606s-2.2-1.06-3.309-1.574q-1.663-.8-3.325-1.542Q573.231,32.911,564,29.216c-1.542-.626-3.1-1.237-4.658-1.831s-3.116-1.189-4.674-1.767c-1.188-.45-2.377-.883-3.582-1.317-2.12-.771-4.24-1.51-6.377-2.233-1.4-.482-2.795-.948-4.192-1.413Q527,16.174,513.159,12.673c-1.221-.305-2.457-.61-3.694-.916-1.4-.337-2.779-.675-4.192-1-1.173-.289-2.345-.546-3.534-.819-1.59-.353-3.18-.691-4.786-1.028-1.108-.241-2.217-.466-3.341-.691-.851-.177-1.686-.337-2.538-.5q-13.01-2.578-26.229-4.272c-1.189-.161-2.393-.305-3.6-.45q-5.734-.7-11.484-1.221c-.032-.016-.048-.016-.064,0-1.333-.145-2.682-.257-4.031-.353q-5.18-.458-10.392-.723c-.819-.064-1.654-.112-2.474-.145-.819-.048-1.638-.08-2.474-.112-2.457-.112-4.915-.209-7.388-.273-.964-.032-1.927-.064-2.891-.08L417.142.048C415.166.016,413.175,0,411.183,0Q399.088,0,387.09.707V123.323a286.837,286.837,0,0,0-100.178,27.112L225.01,44.347c-1.413.723-2.811,1.446-4.208,2.184-4.208,2.2-8.368,4.513-12.512,6.858l-.016-.032q-12.673,7.2-24.848,15.323Q177.5,72.656,171.7,76.824a417.9,417.9,0,0,0-96.467,97.11q-4.409,6.192-8.561,12.528a405.739,405.739,0,0,0-23.964,41.793l106.651,60.987a286.42,286.42,0,0,0-26.133,98.941L.61,388.648q-.6,11.227-.61,22.535,0,12.89.787,25.651.385,6.553,1.012,13.074A407.872,407.872,0,0,0,37.183,582.579q3.325,7.228,6.923,14.311a409.013,409.013,0,0,0,24.285,41.616l106.2-61.79a291.127,291.127,0,0,0,72.551,72.1l-61.115,106.57A401.634,401.634,0,0,0,227.8,779.433q6.071,3.036,12.239,5.863a407.791,407.791,0,0,0,133.329,35.352q7.348.7,14.745,1.076,11.468.65,23.065.642c2.554,0,5.092-.016,7.629-.08,1.333-.016,2.666-.048,3.983-.1a1.543,1.543,0,0,0,.385,0c.5-.016,1-.016,1.494-.048a1.377,1.377,0,0,0,.257-.016q2.554-.072,5.108-.193c1.847-.08,3.694-.177,5.525-.289.241,0,.482-.016.739-.032L436,698.979a286.55,286.55,0,0,0,98.78-26.743l61.645,106.249q2.674-1.349,5.349-2.747c1.381-.723,2.763-1.462,4.128-2.2,4.048-2.152,8.031-4.4,11.982-6.7,1.638-.964,3.261-1.927,4.883-2.907,3.71-2.217,7.372-4.513,11-6.858,1.446-.932,2.875-1.879,4.3-2.827q5.686-3.759,11.259-7.758c2.329-1.654,4.626-3.341,6.923-5.043s4.561-3.421,6.81-5.188l2.7-2.12c1.349-1.06,2.7-2.136,4.032-3.228,1.124-.9,2.233-1.815,3.325-2.731,1.3-1.076,2.586-2.152,3.871-3.245q12.866-10.914,24.944-23,2.819-2.819,5.574-5.686c1.108-1.141,2.2-2.3,3.277-3.453,2.12-2.233,4.176-4.481,6.232-6.746,1.944-2.168,3.871-4.337,5.766-6.537l.578-.675c1.14-1.317,2.265-2.65,3.373-3.983q2.554-3.036,5.043-6.12l2.072-2.6c.98-1.237,1.943-2.457,2.907-3.71.964-1.237,1.927-2.49,2.875-3.758q2.385-3.132,4.674-6.3c.787-1.092,1.574-2.168,2.345-3.26a1.553,1.553,0,0,0,.177-.241c1.687-2.361,3.357-4.77,5-7.18,1.076-1.558,2.12-3.132,3.148-4.706a2.337,2.337,0,0,0,.145-.209,1.926,1.926,0,0,0,.145-.241c.659-.98,1.3-1.943,1.927-2.939.225-.353.466-.707.691-1.076q1.9-2.987,3.79-6.023c1.044-1.7,2.072-3.405,3.1-5.124,1.012-1.7,2.024-3.421,3.02-5.14q4.553-7.854,8.706-15.885c.915-1.767,1.815-3.534,2.7-5.316L672.7,533.783a286.856,286.856,0,0,0,26.373-98.877l122.616-.161q.169-2.939.289-5.879.265-5.879.337-11.773c.032-1.976.048-3.935.048-5.911Q822.366,401.3,821.9,391.507ZM411.183,651.87C278.464,651.87,170.5,543.9,170.5,411.183S278.464,170.5,411.183,170.5,651.87,278.464,651.87,411.183,543.9,651.87,411.183,651.87Z" transform="translate(0 0)" fill="#990013"/>
</svg>
